<?xml version="1.0" encoding="UTF-8"?>
<svg version="1.1" xmlns="http://www.w3.org/2000/svg" width="500" height="500">
<path d="M0 0 C9.3225 -0.061875 18.645 -0.12375 28.25 -0.1875 C31.16875977 -0.21481201 34.08751953 -0.24212402 37.09472656 -0.27026367 C39.44335518 -0.27903665 41.79198842 -0.28667866 44.140625 -0.29296875 C45.33155762 -0.30831665 46.52249023 -0.32366455 47.74951172 -0.33947754 C59.07204322 -0.34296784 71.7961479 1.12266643 80.375 9.25 C83.70924169 14.89256286 84.54026808 20.35238155 83.609375 26.7578125 C82.12673214 32.2131779 78.90977484 37.0905038 74 40 C74.77730469 40.35191406 75.55460937 40.70382812 76.35546875 41.06640625 C79.88025758 43.64361521 80.24554196 45.75309254 81.3125 49.9375 C81.63863281 51.16339844 81.96476562 52.38929688 82.30078125 53.65234375 C83 57 83 57 83 61 C74.75 61 66.5 61 58 61 C56.86067708 57.71223958 55.72135417 54.42447917 54.58203125 51.13671875 C52.69635251 47.39795324 51.91601706 46.45336715 48 45 C44.23143832 44.51796164 40.48337143 44.39750032 36.6875 44.3125 C35.14739258 44.26125977 35.14739258 44.26125977 33.57617188 44.20898438 C31.05115859 44.12677464 28.52559759 44.06170373 26 44 C26 49.61 26 55.22 26 61 C17.42 61 8.84 61 0 61 C0 40.87 0 20.74 0 0 Z M26 16 C26 19.96 26 23.92 26 28 C29.6879481 28.08128539 33.3740864 28.14064175 37.0625 28.1875 C38.10083984 28.21263672 39.13917969 28.23777344 40.20898438 28.26367188 C46.28725924 28.32156021 50.64275935 27.94982599 56 25 C57.29633621 23.93354885 57.29633621 23.93354885 57.0625 21.4375 C57.041875 20.633125 57.02125 19.82875 57 19 C50.56251935 15.48109021 44.78585359 15.64531259 37.5625 15.8125 C35.8928418 15.83280273 35.8928418 15.83280273 34.18945312 15.85351562 C31.45942504 15.8886662 28.72964811 15.94246643 26 16 Z " fill="#000000" transform="translate(317,216)"/>
<path d="M0 0 C23.43 0 46.86 0 71 0 C71 5.28 71 10.56 71 16 C56.48 16 41.96 16 27 16 C27 18.64 27 21.28 27 24 C39.21 24 51.42 24 64 24 C64 28.29 64 32.58 64 37 C51.79 37 39.58 37 27 37 C27 39.64 27 42.28 27 45 C27.58659897 44.99777939 28.17319794 44.99555878 28.77757263 44.99327087 C34.86025384 44.9712179 40.94292377 44.95609336 47.02563477 44.94506836 C49.29842591 44.94002675 51.5712138 44.93319363 53.84399414 44.92456055 C57.10303551 44.91248739 60.36203417 44.90677013 63.62109375 44.90234375 C64.64400009 44.89718246 65.66690643 44.89202118 66.72080994 44.88670349 C67.66170975 44.88662796 68.60260956 44.88655243 69.57202148 44.88647461 C70.40475082 44.884254 71.23748016 44.88203339 72.09544373 44.87974548 C74 45 74 45 75 46 C75 50.95 75 55.9 75 61 C50.25 61 25.5 61 0 61 C0 40.87 0 20.74 0 0 Z " fill="#000000" transform="translate(409,216)"/>
<path d="M0 0 C14.52599006 -0.21631028 14.52599006 -0.21631028 18.99804688 2.83764648 C22.53027304 6.8225806 24.46393355 11.68781219 26.56591797 16.52758789 C29.28416454 22.21119437 32.88642288 27.37661362 36.33740234 32.63500977 C37.67915685 34.73227674 39.02033156 36.82991478 40.36083984 38.92797852 C43.11552576 43.19291677 45.99120263 47.33188774 48.96240234 51.44750977 C51.14722019 55.01953632 53.10666802 58.69516591 54.96240234 62.44750977 C50.56725228 62.65100964 46.17331245 62.77521756 41.77490234 62.88500977 C40.52902344 62.94366211 39.28314453 63.00231445 37.99951172 63.06274414 C29.00796243 63.23148635 29.00796243 63.23148635 25.98339844 60.96362305 C23.76530591 57.98973603 22.96240234 56.19460744 22.96240234 52.44750977 C17.64093564 52.36785736 12.32367039 52.34712991 7.00170898 52.38037109 C5.19274547 52.38344839 3.38368039 52.37058453 1.57495117 52.34130859 C-1.03087865 52.30192397 -3.63096586 52.32037475 -6.23681641 52.34985352 C-7.44491219 52.31298683 -7.44491219 52.31298683 -8.67741394 52.27537537 C-11.31199866 52.25010027 -11.31199866 52.25010027 -15.03759766 53.44750977 C-16.68759766 56.41750977 -18.33759766 59.38750977 -20.03759766 62.44750977 C-28.94759766 62.44750977 -37.85759766 62.44750977 -47.03759766 62.44750977 C-45.36601805 58.26856076 -43.72892308 55.22247643 -41.28759766 51.51000977 C-40.47956984 50.27220876 -39.67233398 49.03389055 -38.86572266 47.79516602 C-38.4190625 47.11083496 -37.97240234 46.42650391 -37.51220703 45.72143555 C-34.65592339 41.31689484 -31.85118992 36.87938965 -29.03759766 32.44750977 C-18.04499328 15.15764194 -18.04499328 15.15764194 -13.03759766 7.44750977 C-12.55677734 6.36469727 -12.07595703 5.28188477 -11.58056641 4.16625977 C-8.03356598 0.37407498 -5.06239309 0.34608656 0 0 Z M2.96240234 20.44750977 C1.45983245 23.09191353 -0.03975886 25.73792828 -1.53759766 28.38500977 C-1.96685547 29.13975586 -2.39611328 29.89450195 -2.83837891 30.67211914 C-3.44746094 31.75009766 -3.44746094 31.75009766 -4.06884766 32.84985352 C-4.44589844 33.5149292 -4.82294922 34.18000488 -5.21142578 34.86523438 C-6.11473873 36.29775276 -6.11473873 36.29775276 -6.03759766 37.44750977 C0.23240234 37.44750977 6.50240234 37.44750977 12.96240234 37.44750977 C11.33110287 33.36926109 9.60375858 29.90318984 7.39990234 26.13500977 C6.77986328 25.06637695 6.15982422 23.99774414 5.52099609 22.89672852 C5.00666016 22.08848633 4.49232422 21.28024414 3.96240234 20.44750977 C3.63240234 20.44750977 3.30240234 20.44750977 2.96240234 20.44750977 Z " fill="#000000" transform="translate(61.03759765625,214.552490234375)"/>
<path d="M0 0 C9.50074636 -0.02255226 19.00147507 -0.0409158 28.50224209 -0.05181217 C32.91337004 -0.05704069 37.3244788 -0.06413777 41.7355957 -0.07543945 C45.98901115 -0.08626944 50.24240809 -0.09227707 54.49583626 -0.09487724 C56.12221633 -0.09673129 57.74859534 -0.10035152 59.37496758 -0.10573006 C61.64510193 -0.11294198 63.91515885 -0.11399088 66.18530273 -0.11352539 C68.12722755 -0.11685631 68.12722755 -0.11685631 70.10838318 -0.12025452 C73 0 73 0 74 1 C74.09909302 3.33160055 74.12970504 5.66629942 74.125 8 C74.12886719 9.918125 74.12886719 9.918125 74.1328125 11.875 C74 15 74 15 73 16 C71.29227642 16.08713831 69.58101351 16.10700007 67.87109375 16.09765625 C66.93966553 16.09515869 66.0082373 16.09266113 65.04858398 16.09008789 C63.26109741 16.07643188 63.26109741 16.07643188 61.4375 16.0625 C57.663125 16.041875 53.88875 16.02125 50 16 C50 30.85 50 45.7 50 61 C41.09 61 32.18 61 23 61 C23 46.15 23 31.3 23 16 C15.41 16 7.82 16 0 16 C0 10.72 0 5.44 0 0 Z " fill="#000000" transform="translate(118,216)"/>
<path d="M0 0 C24.42 0 48.84 0 74 0 C74 5.28 74 10.56 74 16 C66.08 16 58.16 16 50 16 C50 30.85 50 45.7 50 61 C41.42 61 32.84 61 24 61 C24 46.15 24 31.3 24 16 C16.08 16 8.16 16 0 16 C0 10.72 0 5.44 0 0 Z " fill="#000000" transform="translate(196,216)"/>
<path d="M0 0 C8.58 0 17.16 0 26 0 C26 20.13 26 40.26 26 61 C17.42 61 8.84 61 0 61 C0 40.87 0 20.74 0 0 Z " fill="#000000" transform="translate(278,216)"/>
</svg>
