<?xml version="1.0" encoding="UTF-8"?>
<svg version="1.1" xmlns="http://www.w3.org/2000/svg" width="3000" height="1000">
<path d="M0 0 C12.70723958 11.68410184 24.74944626 23.73583099 34.95703125 37.67578125 C35.694375 38.61808594 36.43171875 39.56039062 37.19140625 40.53125 C64.06764988 75.07961282 81.08677337 116.79950312 88.95703125 159.67578125 C89.12219238 160.53075195 89.28735352 161.38572266 89.45751953 162.26660156 C92.22412398 177.1610615 92.26834812 192.13958947 92.33203125 207.23828125 C92.33997711 208.22376953 92.34792297 209.20925781 92.35610962 210.22460938 C92.61404256 251.92391306 82.55501231 293.36010798 63.95703125 330.67578125 C63.62590332 331.36349609 63.29477539 332.05121094 62.95361328 332.75976562 C51.22187768 357.06575203 33.97009296 383.64594052 13.08984375 401.25 C12.71601563 401.72050781 12.3421875 402.19101562 11.95703125 402.67578125 C12.44362174 405.83375773 13.70040182 408.20114401 15.328125 410.921875 C16.05841919 412.1608252 16.05841919 412.1608252 16.8034668 413.42480469 C17.32851807 414.31200195 17.85356934 415.19919922 18.39453125 416.11328125 C54.72287152 478.84892573 65.61016193 553.56551251 47.390625 623.94140625 C35.74544863 666.44767649 15.4665654 706.56917762 -15.04296875 738.67578125 C-16.23773649 740.04447088 -17.42577147 741.41908101 -18.60546875 742.80078125 C-24.86791983 749.98936947 -31.72597277 756.57227722 -39.04296875 762.67578125 C-39.77217529 763.29163086 -39.77217529 763.29163086 -40.51611328 763.91992188 C-56.65547386 777.48338811 -74.30832414 789.02597531 -93.04296875 798.67578125 C-93.77628418 799.05541016 -94.50959961 799.43503906 -95.26513672 799.82617188 C-128.61073636 816.8728664 -167.41945803 827.68571583 -205.01953125 827.87890625 C-205.93939819 827.88596588 -206.85926514 827.89302551 -207.80700684 827.90029907 C-246.17279118 828.12786804 -246.17279118 828.12786804 -264.04296875 824.67578125 C-265.604104 824.38574219 -265.604104 824.38574219 -267.19677734 824.08984375 C-291.84843668 819.40049244 -315.51999484 811.74784033 -338.04296875 800.67578125 C-338.80416016 800.30936523 -339.56535156 799.94294922 -340.34960938 799.56542969 C-366.30906462 786.98202963 -389.30920003 769.5993734 -410.04296875 749.67578125 C-410.5313623 749.20930176 -411.01975586 748.74282227 -411.52294922 748.26220703 C-418.25583008 741.80072211 -424.30096378 735.02407056 -430.04296875 727.67578125 C-431.04031647 726.43095103 -432.03771552 725.18616194 -433.03515625 723.94140625 C-441.64207386 713.07391435 -449.03653448 701.62908628 -456.04296875 689.67578125 C-456.62038818 688.69907471 -456.62038818 688.69907471 -457.20947266 687.70263672 C-467.60371967 669.91389019 -482.04296875 643.61734916 -482.04296875 622.67578125 C-483.67987671 622.69934692 -483.67987671 622.69934692 -485.34985352 622.72338867 C-526.37737969 623.2612814 -526.37737969 623.2612814 -545.04296875 619.67578125 C-545.97238281 619.5041748 -546.90179687 619.33256836 -547.859375 619.15576172 C-599.53321309 609.42779657 -648.15095136 585.24455277 -686.04296875 548.67578125 C-686.76709961 547.97888184 -687.49123047 547.28198242 -688.23730469 546.56396484 C-697.78546138 537.32576261 -707.02812411 528.08552529 -714.84863281 517.31884766 C-716.04917935 515.66723724 -717.27454615 514.0364884 -718.50390625 512.40625 C-729.30544793 497.89134568 -738.46185739 482.09210733 -746.04296875 465.67578125 C-746.57784912 464.53133545 -746.57784912 464.53133545 -747.12353516 463.36376953 C-757.0976395 441.81157613 -763.89329462 419.04584524 -768.04296875 395.67578125 C-768.20667969 394.76763672 -768.37039063 393.85949219 -768.5390625 392.92382812 C-773.39146454 364.55131209 -773.28127777 332.97480852 -768.04296875 304.67578125 C-767.86604492 303.69061523 -767.68912109 302.70544922 -767.50683594 301.69042969 C-758.57097731 252.93675539 -737.14983073 206.75594252 -704.04296875 169.67578125 C-703.59066895 169.16708496 -703.13836914 168.65838867 -702.67236328 168.13427734 C-692.85798451 157.14231248 -682.67943012 146.76038705 -671.04296875 137.67578125 C-670.43743164 137.19383301 -669.83189453 136.71188477 -669.20800781 136.21533203 C-612.9220681 91.44052278 -540.9912584 70.34190691 -469.38037109 77.55297852 C-456.84139855 79.00813972 -444.42302356 81.23202294 -432.04296875 83.67578125 C-431.77258789 83.16418457 -431.50220703 82.65258789 -431.22363281 82.12548828 C-421.91712163 64.61629771 -411.57018346 48.07142165 -399.04296875 32.67578125 C-398.61113281 32.14098145 -398.17929688 31.60618164 -397.734375 31.05517578 C-386.00129954 16.63114497 -372.85190037 2.95352202 -358.04296875 -8.32421875 C-357.04394531 -9.11699219 -356.04492188 -9.90976563 -355.015625 -10.7265625 C-282.86503797 -67.77483542 -184.88754549 -84.01526744 0 0 Z " fill="#039847" transform="translate(2522.04296875,118.32421875)"/>
<path d="M0 0 C0.86367187 0.13390137 1.72734375 0.26780273 2.6171875 0.40576172 C55.81171565 8.95044352 106.43746936 35.71507943 145 73 C145.65323242 73.63131836 146.30646484 74.26263672 146.97949219 74.91308594 C155.17924228 82.88131367 163.05520299 90.89267723 170 100 C170.93988755 101.19938853 171.88000755 102.39859493 172.8203125 103.59765625 C206.70535918 147.27913934 226.88753558 201.72842011 229 257 C229.03851074 258.00740234 229.07702148 259.01480469 229.11669922 260.05273438 C230.46784558 302.99364445 222.15982064 346.21939634 204.125 385.3125 C203.76809082 386.09520264 203.41118164 386.87790527 203.04345703 387.68432617 C200.56518418 392.74895307 200.56518418 392.74895307 198.21533203 393.79272461 C195.32013191 394.0636112 193.31164693 393.41736314 190.546875 392.515625 C189.4647876 392.16322754 188.3827002 391.81083008 187.26782227 391.44775391 C186.10694092 391.05249512 184.94605957 390.65723633 183.75 390.25 C182.54722412 389.84313965 181.34444824 389.4362793 180.10522461 389.01708984 C142.2710085 375.88652282 107.7958516 354.79215939 79 327 C78.32501465 326.35224609 77.6500293 325.70449219 76.95458984 325.03710938 C67.4872335 315.90978232 58.76113493 306.62117393 51 296 C50.39043457 295.17435547 50.39043457 295.17435547 49.76855469 294.33203125 C47.48613648 291.23984118 45.229637 288.13043591 43 285 C39.04504402 286.57457264 36.50123835 289.29398244 33.6875 292.375 C33.1711499 292.94025391 32.6547998 293.50550781 32.12280273 294.08789062 C19.29621082 308.43815155 8.69211664 324.417638 -1 341 C-1.3820459 341.64678711 -1.7640918 342.29357422 -2.15771484 342.95996094 C-12.65084525 360.91585685 -20.56337262 380.95348853 -26 401 C-26.21849609 401.80115234 -26.43699219 402.60230469 -26.66210938 403.42773438 C-37.91557545 445.57047975 -39.90882873 490.68022252 -29.8671875 533.27734375 C-29.11326429 536.51377989 -28.52815027 539.72147682 -28 543 C-72.07890804 543.63458007 -72.07890804 543.63458007 -91 540 C-91.92941406 539.82839355 -92.85882812 539.65678711 -93.81640625 539.47998047 C-145.49024434 529.75201532 -194.10798261 505.56877152 -232 469 C-232.72413086 468.30310059 -233.44826172 467.60620117 -234.19433594 466.88818359 C-243.74249263 457.64998136 -252.98515536 448.40974404 -260.80566406 437.64306641 C-262.0062106 435.99145599 -263.2315774 434.36070715 -264.4609375 432.73046875 C-275.26247918 418.21556443 -284.41888864 402.41632608 -292 386 C-292.35658691 385.23703613 -292.71317383 384.47407227 -293.08056641 383.68798828 C-303.05467075 362.13579488 -309.85032587 339.37006399 -314 316 C-314.16371094 315.09185547 -314.32742188 314.18371094 -314.49609375 313.24804688 C-319.34849579 284.87553084 -319.23830902 253.29902727 -314 225 C-313.82307617 224.01483398 -313.64615234 223.02966797 -313.46386719 222.01464844 C-304.52800856 173.26097414 -283.10686198 127.08016127 -250 90 C-249.5477002 89.49130371 -249.09540039 88.98260742 -248.62939453 88.45849609 C-238.81501576 77.46653123 -228.63646137 67.0846058 -217 58 C-216.39446289 57.51805176 -215.78892578 57.03610352 -215.16503906 56.53955078 C-154.75283698 8.48234789 -76.27209282 -12.20300371 0 0 Z " fill="#DB1F26" transform="translate(2068,198)"/>
<path d="M0 0 C3.76619201 1.25539734 4.39692784 2.6383355 6.625 5.875 C20.52174654 25.51336394 37.73753799 44.48532792 57 59 C57.53206055 59.40847168 58.06412109 59.81694336 58.61230469 60.23779297 C94.17976161 87.49274225 135.79728243 106.96821283 180 115 C181.15508057 115.22429687 181.15508057 115.22429687 182.33349609 115.453125 C197.60952609 118.30374954 212.95256241 118.29075356 228.4375 118.3125 C229.47207336 118.31608521 230.50664673 118.31967041 231.5725708 118.32336426 C244.20432231 118.34687729 256.49858314 117.82616338 269 116 C269.98460205 115.87004639 270.9692041 115.74009277 271.98364258 115.60620117 C325.69513974 108.31583048 374.69929292 82.47041332 415 47 C415.87398437 46.23816406 416.74796875 45.47632813 417.6484375 44.69140625 C419.43653055 43.13231459 421.22080609 41.56922693 423 40 C461.20501148 84.77982741 472.57369541 156.8712911 468.3125 213.625 C463.15613999 272.96429421 439.26247759 331.57757323 398 375 C396.80523226 376.36868963 395.61719728 377.74329976 394.4375 379.125 C388.17504892 386.31358822 381.31699598 392.89649597 374 399 C373.5138623 399.41056641 373.02772461 399.82113281 372.52685547 400.24414062 C356.38749489 413.80760686 338.73464461 425.35019406 320 435 C319.26668457 435.37962891 318.53336914 435.75925781 317.77783203 436.15039062 C284.43223239 453.19708515 245.62351072 464.00993458 208.0234375 464.203125 C207.10357056 464.21018463 206.18370361 464.21724426 205.23596191 464.22451782 C166.87017757 464.45208679 166.87017757 464.45208679 149 461 C147.95924316 460.80664062 146.91848633 460.61328125 145.84619141 460.4140625 C121.19453207 455.72471119 97.52297391 448.07205908 75 437 C74.23880859 436.63358398 73.47761719 436.26716797 72.69335938 435.88964844 C46.73390413 423.30624838 23.73376872 405.92359215 3 386 C2.51160645 385.53352051 2.02321289 385.06704102 1.52001953 384.58642578 C-5.21286133 378.12494086 -11.25799503 371.34828931 -17 364 C-17.99734772 362.75516978 -18.99474677 361.51038069 -19.9921875 360.265625 C-28.59910511 349.3981331 -35.99356573 337.95330503 -43 326 C-43.38494629 325.3488623 -43.76989258 324.69772461 -44.16650391 324.02685547 C-63.36030084 291.17853195 -73.1418567 253.5710463 -77 216 C-77.09643799 215.11610596 -77.19287598 214.23221191 -77.29223633 213.3215332 C-79.19359899 194.67531147 -78.61656346 175.54702658 -76 157 C-75.80664062 155.60950439 -75.80664062 155.60950439 -75.609375 154.19091797 C-67.39104551 96.82431481 -41.80751631 40.81753869 0 0 Z " fill="#223A7B" transform="translate(2109,482)"/>
<path d="M0 0 C45.19251542 4.65551038 91.14149441 36.19699432 123 67 C123.65323242 67.63131836 124.30646484 68.26263672 124.97949219 68.91308594 C133.17924228 76.88131367 141.05520299 84.89267723 148 94 C148.93988755 95.19938853 149.88000755 96.39859493 150.8203125 97.59765625 C184.70535918 141.27913934 204.88753558 195.72842011 207 251 C207.05776611 252.51110352 207.05776611 252.51110352 207.11669922 254.05273438 C208.46784558 296.99364445 200.15982064 340.21939634 182.125 379.3125 C181.58963623 380.48655396 181.58963623 380.48655396 181.04345703 381.68432617 C178.56518418 386.74895307 178.56518418 386.74895307 176.21533203 387.79272461 C173.32013191 388.0636112 171.31164693 387.41736314 168.546875 386.515625 C167.4647876 386.16322754 166.3827002 385.81083008 165.26782227 385.44775391 C164.10694092 385.05249512 162.94605957 384.65723633 161.75 384.25 C160.54722412 383.84313965 159.34444824 383.4362793 158.10522461 383.01708984 C120.2710085 369.88652282 85.7958516 348.79215939 57 321 C56.32501465 320.35224609 55.6500293 319.70449219 54.95458984 319.03710938 C46.03084478 310.43386927 37.67778742 301.73094627 30.3125 291.75244141 C28.9597819 289.94630106 27.56423831 288.18128384 26.15625 286.41796875 C6.78358606 261.86920626 -6.1006448 233.45965182 -16 204 C-16.25620117 203.26458984 -16.51240234 202.52917969 -16.77636719 201.77148438 C-20.35821091 191.43983244 -22.2923773 180.79358519 -24.25 170.0625 C-24.38119232 169.34376709 -24.51238464 168.62503418 -24.64755249 167.88452148 C-26.68145495 156.63821842 -28.14311564 145.64469176 -28.203125 134.20703125 C-28.21013931 133.30658081 -28.21715363 132.40613037 -28.22438049 131.47839355 C-28.24178088 128.58971083 -28.24823268 125.70123321 -28.25 122.8125 C-28.25067474 121.82446381 -28.25134949 120.83642761 -28.25204468 119.81845093 C-28.23731833 106.25658776 -27.99996388 92.95552394 -25.48291016 79.58740234 C-24.96471342 76.8109367 -24.51970076 74.02728543 -24.07421875 71.23828125 C-20.81221459 52.03799468 -14.25201631 14.25201631 0 0 Z " fill="#CCDB0E" transform="translate(2090,204)"/>
<path d="M0 0 C20.46 0 40.92 0 62 0 C65.96 6.27 69.92 12.54 74 19 C77.97546099 25.15369464 77.97546099 25.15369464 81.9609375 31.30078125 C85.62504775 36.95464874 89.24774671 42.63494823 92.875 48.3125 C97.72047499 55.89449735 102.58562474 63.46247322 107.5 71 C113.11569938 79.61319745 118.66280567 88.26926367 124.19921875 96.93359375 C128.36311285 103.44820263 132.53629158 109.9562595 136.76025391 116.43212891 C139.22238707 120.21626233 141.6457265 124.02183681 144.03527832 127.85232544 C145.48890862 130.18050317 146.95047807 132.50365327 148.41235352 134.82666016 C149.1341914 135.97868425 149.85217128 137.13313521 150.56616211 138.29003906 C151.56570528 139.90899432 152.5794338 141.51916549 153.59375 143.12890625 C154.17833984 144.06806885 154.76292969 145.00723145 155.36523438 145.97485352 C155.90470703 146.64315186 156.44417969 147.3114502 157 148 C157.99 148 158.98 148 160 148 C161.36440295 146.49470167 161.36440295 146.49470167 162.53125 144.44140625 C163.00594727 143.67231934 163.48064453 142.90323242 163.96972656 142.11083984 C164.4747168 141.2698877 164.97970703 140.42893555 165.5 139.5625 C166.58763335 137.79501366 167.67619211 136.02809647 168.765625 134.26171875 C169.31154297 133.3701709 169.85746094 132.47862305 170.41992188 131.56005859 C172.6409498 127.96152663 174.9390334 124.41618048 177.25 120.875 C181.86617009 113.77090515 186.43724591 106.63850237 191 99.5 C195.90371326 91.82924034 200.82204717 84.16877134 205.77734375 76.53125 C209.87773848 70.20423143 213.93902167 63.85236834 218 57.5 C222.89721228 49.83955621 227.80839975 42.18897744 232.75756836 34.56201172 C237.7715623 26.82602782 242.73160169 19.0554077 247.6953125 11.28710938 C248.35402344 10.25650391 249.01273438 9.22589844 249.69140625 8.1640625 C250.28123291 7.24061035 250.87105957 6.3171582 251.47875977 5.36572266 C252.63583716 3.56631968 253.81332019 1.78001971 255 0 C275.46 0 295.92 0 317 0 C317 106.26 317 212.52 317 322 C298.19 322 279.38 322 260 322 C259.505 209.635 259.505 209.635 259 95 C236.65010782 127.93668321 214.31121517 160.86081309 192.44897461 194.12207031 C184.73480656 205.85806367 176.98510199 217.56926071 169.1875 229.25 C168.71007355 229.96520813 168.23264709 230.68041626 167.74075317 231.41729736 C165.16217836 235.27932034 162.58194094 239.1402267 160 243 C157.86328125 242.99731445 157.86328125 242.99731445 155 242 C152.72188778 239.58436487 150.99132641 236.82214209 149.1875 234.04296875 C148.62950211 233.20921722 148.07150421 232.3754657 147.49659729 231.51644897 C145.65000639 228.749411 143.82515843 225.96871208 142 223.1875 C140.71343589 221.25102227 139.42557444 219.31540588 138.13647461 217.38061523 C134.07056733 211.26712875 130.03424013 205.13440989 126 199 C124.67617212 196.99040961 123.35211877 194.98096773 122.02783203 192.97167969 C120.72818492 190.99935238 119.42854295 189.02702168 118.12890625 187.0546875 C117.49068939 186.08624405 116.85247253 185.1178006 116.19491577 184.12001038 C113.14688944 179.49308567 110.10356299 174.86324609 107.07226562 170.2253418 C101.76000788 162.11097676 96.38072456 154.06902322 90.77734375 146.15234375 C79.24813824 129.62000737 68.18021227 112.77031841 57 96 C56.67 170.58 56.34 245.16 56 322 C37.52 322 19.04 322 0 322 C0 215.74 0 109.48 0 0 Z " fill="#58595B" transform="translate(744,538)"/>
<path d="M0 0 C78.87 0 157.74 0 239 0 C239 16.83 239 33.66 239 51 C178.94 51 118.88 51 57 51 C57 78.39 57 105.78 57 134 C110.46 134 163.92 134 219 134 C219 150.83 219 167.66 219 185 C165.54 185 112.08 185 57 185 C57 213.38 57 241.76 57 271 C118.05 271 179.1 271 242 271 C242 287.83 242 304.66 242 322 C162.14 322 82.28 322 0 322 C0 215.74 0 109.48 0 0 Z " fill="#58595B" transform="translate(1437,538)"/>
<path d="M0 0 C1.24608032 0.00697906 1.24608032 0.00697906 2.51733398 0.01409912 C15.28168732 0.09772849 27.75189762 0.56598025 40.25 3.375 C41.12398437 3.56835938 41.99796875 3.76171875 42.8984375 3.9609375 C69.60430738 10.08891331 94.11754711 21.9414063 115.25 39.375 C115.58 40.035 115.91 40.695 116.25 41.375 C109.11526086 51.81025823 101.8873334 62.17424741 94.58203125 72.49072266 C91.78926716 76.44133725 89.01855268 80.40739105 86.25 84.375 C82.34367854 83.00112774 79.46101662 81.18882719 76.19140625 78.6640625 C70.46280921 74.41675122 64.52328021 71.00463408 58.1875 67.75 C57.09840332 67.18877441 56.00930664 66.62754883 54.88720703 66.04931641 C45.89550609 61.51578567 36.96943014 57.96684804 27.25 55.375 C26.09886719 55.03984375 24.94773437 54.7046875 23.76171875 54.359375 C5.17443279 49.72834112 -17.4168308 49.92154689 -34.6875 58.6875 C-43.42614846 64.10184151 -49.84735375 70.28331852 -52.56640625 80.41796875 C-54.37372238 89.93195368 -54.01083456 99.90983422 -49.11328125 108.51171875 C-34.22338871 128.8626607 -0.99951102 133.69099154 22 139.4375 C55.8255606 147.90106129 94.46502158 158.69529437 114.625 189.6875 C123.06416261 204.24851417 125.67662521 218.8433631 125.625 235.4375 C125.62412384 236.12441925 125.62324768 236.8113385 125.62234497 237.51907349 C125.53138592 259.13994509 120.14030715 278.42270129 106.25 295.375 C105.72019531 296.06722656 105.19039062 296.75945312 104.64453125 297.47265625 C87.31342767 318.99745897 57.96611684 328.93591068 31.40757751 332.16235352 C27.89024408 332.5090148 24.3839622 332.57657383 20.8515625 332.61328125 C20.06751038 332.6230751 19.28345825 332.63286896 18.47564697 332.64295959 C-32.66898115 333.14943879 -83.23780275 319.9301364 -121.75 284.375 C-122.78757074 283.07068994 -123.80227386 281.74598247 -124.75 280.375 C-119.34251826 273.68392411 -113.82880158 267.10289284 -108.2097168 260.58959961 C-104.30865585 256.05697993 -100.52034736 251.44813187 -96.78515625 246.77734375 C-94.56987878 244.1623809 -92.20213299 241.76742888 -89.75 239.375 C-88.2959375 240.60863281 -88.2959375 240.60863281 -86.8125 241.8671875 C-53.81541726 269.49642323 -17.89421835 282.55838777 25.25 280.375 C38.07937728 278.99077771 51.78900312 273.44321681 60.25 263.375 C66.53037833 252.93969888 68.7965452 243.74601543 66.7890625 231.58203125 C64.2376635 221.90172329 58.98752862 216.1303621 50.4609375 211.08984375 C32.91174666 201.71746567 13.96717648 196.71381815 -5.27832031 192.05563354 C-39.83841855 183.67744362 -80.49673014 173.23215175 -100.75 141.375 C-112.79468624 121.1243497 -115.15945698 94.53033404 -109.71875 71.78515625 C-105.17999536 55.80800786 -98.34658322 43.32174648 -86.75 31.375 C-86.13769531 30.68921875 -85.52539062 30.0034375 -84.89453125 29.296875 C-63.86177071 6.51512158 -29.64244069 -0.2973784 0 0 Z " fill="#58595B" transform="translate(1245.75,532.625)"/>
<path d="M0 0 C2.69849689 0.0031451 5.39587704 -0.02033719 8.09423828 -0.0456543 C53.08840378 -0.21033675 94.77255954 16.74041259 126.99267578 48.16333008 C127.53988281 48.73374023 127.53988281 48.73374023 128.09814453 49.31567383 C126.68974958 53.61012401 124.63959677 56.18613862 121.53564453 59.44067383 C118.0780541 63.14133733 114.77328467 66.86514296 111.59814453 70.81567383 C107.68557334 75.66476473 103.55745013 80.26976992 99.34033203 84.85473633 C96.83233402 87.60741707 94.44290762 90.42379935 92.09814453 93.31567383 C87.44626451 89.94990181 83.04859008 86.40540831 78.72314453 82.62817383 C55.18427083 62.61936793 24.78549739 51.54066318 -6.14672852 53.58935547 C-30.51087257 55.70417905 -50.52491575 65.30436842 -68.90185547 81.31567383 C-69.52705078 81.85579102 -70.15224609 82.3959082 -70.79638672 82.95239258 C-91.05862134 101.791051 -102.12986144 132.26130481 -103.28857422 159.34301758 C-103.63050122 173.76948782 -102.75500434 187.39266486 -98.90185547 201.31567383 C-98.63695312 202.3146167 -98.63695312 202.3146167 -98.36669922 203.33374023 C-91.18837771 229.72736497 -73.46516685 253.38787786 -49.85644531 267.22973633 C-23.77186584 281.7218934 6.30417266 284.02223999 34.91064453 276.28442383 C56.88684922 269.50842738 75.90411463 256.50970373 92.09814453 240.31567383 C95.62150952 240.62622701 97.33757265 242.1881392 99.76513672 244.64208984 C100.46556091 245.34274063 101.16598511 246.04339142 101.88763428 246.76527405 C103.00503998 247.90590553 103.00503998 247.90590553 104.14501953 249.06958008 C104.91622131 249.8450267 105.6874231 250.62047333 106.48199463 251.41941833 C108.94450163 253.89872324 111.39637587 256.38825374 113.84814453 258.87817383 C115.51542362 260.56049823 117.18338422 262.2421475 118.85205078 263.9230957 C122.94202355 268.04615257 127.02331374 272.17765441 131.09814453 276.31567383 C129.69013194 279.25026973 128.36606562 281.28033425 126.00048828 283.53051758 C125.37295654 284.12767578 124.7454248 284.72483398 124.09887695 285.34008789 C123.41801025 285.97140625 122.73714355 286.60272461 122.03564453 287.25317383 C121.3231958 287.91414063 120.61074707 288.57510742 119.87670898 289.25610352 C83.09167572 322.88215515 39.54289514 337.01321092 -10.01904297 335.13598633 C-53.01791568 332.74774628 -94.01731794 314.14324915 -122.92553711 282.01831055 C-155.99856454 244.07245463 -166.70369926 197.70888847 -163.90185547 148.31567383 C-162.18954911 127.60796887 -155.87671522 107.96349111 -146.90185547 89.31567383 C-146.60585449 88.69241211 -146.30985352 88.06915039 -146.00488281 87.42700195 C-138.51666879 71.8761134 -127.88257396 58.64721863 -115.90185547 46.31567383 C-115.37197021 45.76387451 -114.84208496 45.2120752 -114.29614258 44.64355469 C-84.60531114 14.2153751 -41.78413283 -0.10132671 0 0 Z " fill="#58595B" transform="translate(554.90185546875,531.684326171875)"/>
<path d="M0 0 C69.33999161 -1.2187938 134.95456985 17.04329084 189 62 C189.5043457 62.41411133 190.00869141 62.82822266 190.52832031 63.25488281 C204.25700839 74.55748631 217.16751606 86.86097134 228 101 C228.86134564 102.10596245 229.72335865 103.21140536 230.5859375 104.31640625 C243 120.27604832 243 120.27604832 243 123 C241.63671875 124.375 241.63671875 124.375 239.6875 126 C236.36705251 128.81050093 233.17041415 131.70894147 230 134.6875 C196.08277493 165.48322221 150.82801228 187.14234718 106 196 C105.12037598 196.17515137 104.24075195 196.35030273 103.33447266 196.53076172 C100.45453868 197.09647186 97.5720804 197.64600089 94.6875 198.1875 C93.80433105 198.35475586 92.92116211 198.52201172 92.01123047 198.69433594 C77.77326337 201.26379232 63.48646181 201.27864647 49.0625 201.3125 C47.99707977 201.31511841 46.93165955 201.31773682 45.83395386 201.32043457 C22.65551681 201.32652826 0.4353013 199.10396041 -22 193 C-20.76229872 188.98835514 -19.22774607 185.24093507 -17.43676758 181.44604492 C-8.76063404 162.92155653 -2.73504823 143.20180819 1.51757812 123.2199707 C1.8295606 121.78431451 2.16039029 120.35256904 2.51367188 118.92651367 C10.62317578 85.61356582 8.96104746 47.37964085 1.67700195 14.19506836 C1.46132568 13.21030518 1.24564941 12.22554199 1.0234375 11.2109375 C0.72832275 9.91615479 0.72832275 9.91615479 0.42724609 8.59521484 C-0.05050497 5.69321837 -0.07022265 2.93594999 0 0 Z " fill="#0786C7" transform="translate(2289,400)"/>
<path d="M0 0 C3.76619201 1.25539734 4.39692784 2.6383355 6.625 5.875 C20.52174654 25.51336394 37.73753799 44.48532792 57 59 C57.53206055 59.40847168 58.06412109 59.81694336 58.61230469 60.23779297 C88.53451127 83.16684929 121.8676525 99.40577177 158 110 C150.07753089 131.46865981 133.72635574 151.91146965 118.30859375 168.5078125 C116.28059379 170.69709164 114.31788817 172.92299995 112.375 175.1875 C106.40100301 182.022864 99.98222711 187.98806039 92.89453125 193.66015625 C90.99098572 195.19891977 89.11212222 196.76881857 87.26171875 198.37109375 C51.92974291 228.91394976 5.80840976 248.27595188 -40 256 C-40.70092773 256.12697266 -41.40185547 256.25394531 -42.12402344 256.38476562 C-51.14285677 258.01791804 -59.86697212 258.2302444 -69 258 C-71.52687006 251.85200275 -72.9709921 245.92237333 -74.0625 239.375 C-74.23168945 238.36719482 -74.40087891 237.35938965 -74.57519531 236.32104492 C-78.81826227 210.12071963 -79.71365136 183.32353145 -76 157 C-75.80664062 155.60950439 -75.80664062 155.60950439 -75.609375 154.19091797 C-67.39104551 96.82431481 -41.80751631 40.81753869 0 0 Z " fill="#6E3D8B" transform="translate(2109,482)"/>
<path d="M0 0 C12.69080952 62.03992881 10.03515734 123.98080981 -16.875 182.3125 C-17.23190918 183.09520264 -17.58881836 183.87790527 -17.95654297 184.68432617 C-20.43481582 189.74895307 -20.43481582 189.74895307 -22.78466797 190.79272461 C-25.67986809 191.0636112 -27.68835307 190.41736314 -30.453125 189.515625 C-31.5352124 189.16322754 -32.6172998 188.81083008 -33.73217773 188.44775391 C-34.89305908 188.05249512 -36.05394043 187.65723633 -37.25 187.25 C-38.45277588 186.84313965 -39.65555176 186.4362793 -40.89477539 186.01708984 C-78.7289915 172.88652282 -113.2041484 151.79215939 -142 124 C-142.67498535 123.35224609 -143.3499707 122.70449219 -144.04541016 122.03710938 C-153.52235838 112.90053494 -162.18231046 103.5878102 -170 93 C-170.88792288 91.82055929 -171.77725186 90.64217585 -172.66796875 89.46484375 C-174.79200236 86.65307771 -176.90063528 83.83025466 -179 81 C-155.78967324 51.98709154 -117.0254976 29.10463882 -82.38671875 17.17578125 C-80.03812291 16.36040945 -77.70523831 15.49889223 -75.38671875 14.6015625 C-51.89592856 5.76341565 -25.25820723 -0.54909146 0 0 Z " fill="#FEFEFE" transform="translate(2289,401)"/>
</svg>
