<?xml version="1.0" standalone="no"?>
<!DOCTYPE svg PUBLIC "-//W3C//DTD SVG 20010904//EN"
 "http://www.w3.org/TR/2001/REC-SVG-20010904/DTD/svg10.dtd">
<svg version="1.0" xmlns="http://www.w3.org/2000/svg"
 width="256.000000pt" height="155.000000pt" viewBox="0 0 256.000000 155.000000"
 preserveAspectRatio="xMidYMid meet">

<g transform="translate(0.000000,155.000000) scale(0.100000,-0.100000)"
fill="#000000" stroke="none">
<path d="M704 1168 c-3 -4 -3 -17 1 -27 5 -17 1 -19 -51 -15 -56 4 -56 4 -52
-21 5 -22 2 -25 -21 -23 -26 3 -26 2 -26 -67 l0 -70 38 -2 c26 -2 40 3 44 13
8 22 -12 40 -30 26 -18 -16 -29 -4 -17 19 7 12 7 20 0 24 -18 11 0 25 24 19
24 -6 45 19 25 31 -5 4 -7 11 -3 16 4 6 11 5 20 -2 11 -9 18 -9 26 -1 8 8 16
7 29 -1 28 -17 48 6 31 34 -13 20 -12 21 16 14 18 -3 33 -2 37 5 3 5 11 7 17
4 18 -12 72 -13 85 -3 7 7 14 6 18 -1 4 -6 16 -8 27 -4 15 4 19 2 18 -13 -1
-10 -2 -20 -1 -23 1 -3 3 -21 5 -42 3 -34 1 -36 -23 -35 -23 2 -26 -2 -24 -26
2 -24 -1 -26 -22 -21 -26 7 -42 -11 -26 -30 14 -17 2 -29 -16 -15 -18 15 -45
-7 -38 -31 4 -14 1 -16 -19 -13 -28 6 -43 -12 -26 -32 7 -8 9 -15 4 -16 -5 -1
-18 -2 -29 -3 -14 -1 -19 -7 -18 -23 2 -18 -2 -21 -25 -20 -23 2 -27 -1 -25
-25 1 -23 -2 -26 -25 -25 -23 2 -27 -2 -24 -21 1 -19 -2 -22 -17 -17 -21 6
-49 -19 -31 -30 21 -13 9 -24 -21 -18 -31 6 -32 5 -25 -21 6 -24 5 -26 -19
-20 -29 7 -48 -22 -24 -37 14 -9 12 -10 -26 -13 -12 0 -21 -9 -21 -21 -3 -36
-4 -38 -17 -27 -18 16 -40 -1 -33 -25 6 -17 3 -20 -19 -15 -20 3 -25 0 -25
-17 0 -11 5 -21 12 -21 6 0 8 -3 5 -7 -4 -3 -43 -7 -86 -8 l-78 -1 3 48 c3 48
0 52 -36 49 -12 -1 -15 16 -15 104 0 58 2 105 5 105 4 0 10 -4 16 -10 6 -6 15
-6 24 0 12 8 13 13 3 29 -14 23 -5 35 14 19 11 -9 18 -8 30 4 20 20 7 41 -20
34 -12 -3 -26 -1 -33 5 -17 14 -40 -17 -25 -34 15 -18 3 -29 -19 -17 -24 13
-48 -13 -31 -34 8 -9 8 -16 2 -20 -5 -4 -12 -2 -16 3 -10 17 -36 -1 -33 -23 1
-11 -1 -27 -6 -34 -4 -7 -3 -19 4 -27 8 -9 8 -15 0 -20 -6 -4 -8 -16 -4 -27 3
-12 6 -39 6 -61 -1 -38 0 -39 28 -34 26 6 29 4 27 -21 -2 -22 2 -27 20 -25 18
2 21 -2 20 -25 -2 -25 1 -27 33 -27 19 0 40 4 47 8 7 5 18 5 25 1 11 -7 56 -9
76 -4 4 1 17 1 30 0 16 -1 22 4 22 18 0 11 -6 22 -12 25 -7 3 12 4 42 3 53 -1
55 0 53 25 -1 23 2 25 24 21 23 -4 25 -2 21 22 -5 23 -3 26 21 24 23 -3 26 1
24 24 -1 23 2 26 25 25 24 -2 27 1 24 27 -3 26 -1 28 12 17 23 -19 50 3 36 29
-9 16 -6 19 17 17 25 -2 28 1 26 26 -2 23 1 26 17 17 21 -11 44 9 35 32 -5 12
0 14 19 11 25 -5 30 -17 27 -54 -2 -19 25 -33 34 -18 15 23 22 -6 19 -76 l-4
-76 28 3 c26 3 27 2 24 -50 -2 -53 -1 -53 26 -50 24 3 27 0 24 -24 -3 -27 -2
-28 45 -26 26 1 53 0 58 -3 6 -3 51 -6 100 -5 87 1 90 2 89 23 0 13 3 23 8 23
14 0 9 38 -7 43 -16 7 -20 3 -29 -36 -5 -21 -10 -26 -19 -19 -7 5 -43 9 -82 7
-79 -2 -91 1 -75 20 16 19 3 37 -23 34 -35 -2 -40 0 -30 14 5 6 9 28 9 47 -1
30 -5 35 -26 36 -40 2 -43 3 -33 17 11 14 10 57 -1 75 -4 7 -17 10 -33 6 -22
-6 -24 -5 -16 11 6 10 8 25 6 35 -4 14 4 16 55 15 33 -2 65 -5 70 -9 6 -3 13
-2 17 4 4 7 12 7 25 0 13 -7 21 -7 25 0 3 6 14 7 23 2 20 -9 64 -8 80 2 6 3
13 2 17 -3 12 -20 37 1 31 25 -4 14 -2 24 4 24 5 0 10 -5 10 -11 0 -6 8 -9 18
-7 10 2 17 13 17 28 0 22 4 25 29 22 26 -3 28 -1 24 22 -5 23 -3 24 24 19 27
-5 30 -3 28 18 -3 38 -1 42 15 29 24 -20 33 -3 32 70 0 71 0 71 -26 68 -23 -3
-26 0 -23 26 3 26 1 28 -22 24 -27 -5 -44 6 -27 17 6 3 8 12 5 20 -4 10 -19
13 -56 11 -45 -4 -49 -2 -45 15 3 10 0 22 -6 26 -18 12 -120 12 -134 0 -8 -6
-13 -6 -13 0 0 5 -20 10 -45 11 -37 0 -45 -3 -45 -18 0 -20 26 -34 36 -19 4 6
11 6 20 -2 11 -9 17 -9 28 0 10 8 16 9 21 2 3 -6 27 -9 56 -6 48 5 49 4 43
-19 -6 -27 11 -43 30 -27 9 7 16 7 24 -1 8 -8 15 -8 27 2 16 13 18 9 15 -29
-1 -20 2 -23 23 -19 14 3 32 1 39 -3 10 -6 10 -9 1 -9 -9 0 -12 -16 -11 -47 1
-27 -1 -54 -6 -61 -4 -7 -3 -19 4 -27 7 -9 8 -15 0 -20 -5 -3 -10 -1 -10 4 0
17 -37 13 -43 -4 -4 -8 -2 -17 4 -20 5 -4 7 -11 3 -16 -4 -6 -11 -6 -19 1 -19
16 -35 4 -35 -26 0 -21 -3 -23 -18 -15 -24 13 -46 -2 -38 -25 5 -18 -1 -19
-99 -18 -57 0 -108 3 -111 7 -4 3 -15 2 -25 -3 -12 -7 -20 -7 -24 0 -4 7 -12
7 -25 0 -13 -7 -21 -7 -25 0 -5 8 -11 7 -21 -1 -11 -9 -18 -9 -26 -1 -6 6 -17
8 -24 5 -8 -3 -14 1 -14 11 0 26 4 31 24 28 24 -3 39 18 25 35 -8 9 -4 12 18
10 25 -2 28 1 26 25 -1 23 2 26 25 25 24 -2 27 1 25 26 -2 24 1 26 22 21 27
-7 42 11 25 31 -13 16 -9 18 27 16 25 -3 40 16 24 32 -7 7 -7 14 0 23 16 19 1
36 -29 32 -25 -3 -26 -1 -27 47 l0 50 -143 1 c-79 0 -145 -3 -148 -8z m310
-139 c-3 -5 -10 -7 -15 -3 -5 3 -7 10 -3 15 3 5 10 7 15 3 5 -3 7 -10 3 -15z
m-48 -56 c-10 -10 -19 5 -10 18 6 11 8 11 12 0 2 -7 1 -15 -2 -18z m451 1 c-9
-9 -28 6 -21 18 4 6 10 6 17 -1 6 -6 8 -13 4 -17z m-497 -32 c0 -13 -12 -22
-22 -16 -10 6 -1 24 13 24 5 0 9 -4 9 -8z m500 -6 c0 -11 -19 -15 -25 -6 -3 5
1 10 9 10 9 0 16 -2 16 -4z m-550 -46 c0 -5 -4 -10 -10 -10 -5 0 -10 5 -10 10
0 6 5 10 10 10 6 0 10 -4 10 -10z m-50 -46 c0 -8 -5 -12 -10 -9 -6 4 -8 11 -5
16 9 14 15 11 15 -7z m-46 -55 c-3 -5 -10 -7 -15 -3 -5 3 -7 10 -3 15 3 5 10
7 15 3 5 -3 7 -10 3 -15z m-44 -39 c0 -5 -4 -10 -10 -10 -5 0 -10 5 -10 10 0
6 5 10 10 10 6 0 10 -4 10 -10z m140 -31 c0 -5 -4 -9 -10 -9 -5 0 -10 7 -10
16 0 8 5 12 10 9 6 -3 10 -10 10 -16z m-190 -15 c0 -8 -4 -12 -10 -9 -5 3 -10
10 -10 16 0 5 5 9 10 9 6 0 10 -7 10 -16z m-556 -45 c-3 -5 -10 -7 -15 -3 -5
3 -7 10 -3 15 3 5 10 7 15 3 5 -3 7 -10 3 -15z m506 1 c0 -5 -2 -10 -4 -10 -3
0 -8 5 -11 10 -3 6 -1 10 4 10 6 0 11 -4 11 -10z m-510 -40 c0 -5 -5 -10 -11
-10 -5 0 -7 5 -4 10 3 6 8 10 11 10 2 0 4 -4 4 -10z m465 1 c3 -5 1 -12 -5
-16 -5 -3 -10 1 -10 9 0 18 6 21 15 7z m335 -1 c0 -5 -4 -10 -10 -10 -5 0 -10
5 -10 10 0 6 5 10 10 10 6 0 10 -4 10 -10z m-6 -51 c-3 -5 -10 -7 -15 -3 -5 3
-7 10 -3 15 3 5 10 7 15 3 5 -3 7 -10 3 -15z m-794 1 c0 -5 -2 -10 -4 -10 -3
0 -8 5 -11 10 -3 6 -1 10 4 10 6 0 11 -4 11 -10z m420 0 c0 -5 -4 -10 -10 -10
-5 0 -10 5 -10 10 0 6 5 10 10 10 6 0 10 -4 10 -10z m-420 -40 c0 -5 -5 -10
-11 -10 -5 0 -7 5 -4 10 3 6 8 10 11 10 2 0 4 -4 4 -10z m847 -16 c-9 -9 -28
6 -21 18 4 6 10 6 17 -1 6 -6 8 -13 4 -17z m-467 12 c0 -11 -19 -15 -25 -6 -3
5 1 10 9 10 9 0 16 -2 16 -4z m-330 -46 c0 -5 -4 -10 -10 -10 -5 0 -10 5 -10
10 0 6 5 10 10 10 6 0 10 -4 10 -10z m275 0 c3 -5 1 -10 -4 -10 -6 0 -11 5
-11 10 0 6 2 10 4 10 3 0 8 -4 11 -10z m519 -11 c-3 -5 -10 -7 -15 -3 -5 3 -7
10 -3 15 3 5 10 7 15 3 5 -3 7 -10 3 -15z m50 -50 c-3 -5 -10 -7 -15 -3 -5 3
-7 10 -3 15 3 5 10 7 15 3 5 -3 7 -10 3 -15z"/>
<path d="M267 903 c-3 -5 -4 -26 -3 -48 1 -33 5 -40 21 -40 15 0 20 6 18 26
-1 22 3 25 33 25 29 0 33 -3 28 -22 -7 -26 11 -40 31 -24 7 6 15 7 18 3 6 -10
1 -69 -7 -81 -8 -13 20 -35 34 -27 7 4 9 17 6 28 -3 12 0 27 5 34 6 6 7 18 3
25 -5 7 -7 24 -5 37 2 21 0 23 -24 19 -22 -5 -26 -2 -22 13 7 25 -18 45 -37
30 -10 -8 -16 -9 -21 -1 -4 7 -12 7 -25 0 -13 -7 -21 -7 -25 0 -7 12 -22 13
-28 3z"/>
<path d="M1670 891 c-49 -15 -87 -40 -129 -86 -105 -114 -115 -266 -20 -306
65 -26 163 2 214 63 36 42 21 54 -24 18 -87 -71 -181 -56 -181 29 l0 37 68 17
c98 25 177 83 196 143 10 34 -9 70 -45 83 -36 12 -43 13 -79 2z m50 -46 c17
-20 5 -62 -28 -95 -27 -26 -140 -76 -150 -65 -8 8 30 86 58 119 22 27 71 55
96 56 6 0 17 -7 24 -15z"/>
<path d="M1910 889 c-36 -14 -90 -70 -90 -92 0 -17 5 -15 35 12 68 59 71 39
14 -90 -23 -51 -44 -113 -47 -136 -13 -120 105 -128 212 -13 65 70 108 160
114 241 4 61 3 68 -17 79 -18 9 -27 8 -47 -5 -29 -19 -30 -39 -3 -73 16 -20
19 -34 14 -61 -18 -93 -119 -215 -173 -209 -43 5 -40 42 17 177 53 124 59 149
39 169 -14 14 -34 14 -68 1z"/>
<path d="M2264 881 c-40 -18 -88 -77 -77 -94 3 -5 21 6 39 24 24 23 37 30 45
22 7 -7 -4 -41 -37 -114 -72 -161 -69 -229 11 -229 38 0 114 47 145 89 33 47
35 32 5 -43 -70 -175 -177 -290 -251 -272 -19 5 -24 13 -24 40 0 22 -6 36 -16
40 -47 18 -87 -37 -59 -81 32 -49 123 -55 191 -13 98 61 204 237 279 461 40
122 44 164 16 179 -44 23 -79 -21 -60 -74 11 -31 10 -40 -15 -91 -38 -77 -145
-188 -177 -183 -20 2 -24 8 -23 38 1 19 20 79 43 133 54 125 60 156 36 174
-23 16 -22 16 -71 -6z"/>
<path d="M204 855 c-4 -9 -2 -21 4 -27 15 -15 44 -1 40 19 -4 23 -36 29 -44 8z"/>
<path d="M364 705 c-7 -18 3 -35 21 -35 18 0 26 25 12 39 -15 15 -27 14 -33
-4z"/>
<path d="M1364 598 c-4 -7 -9 -31 -9 -53 -1 -37 -3 -40 -28 -37 -23 3 -27 0
-27 -21 0 -14 -5 -27 -12 -29 -7 -3 -9 -12 -5 -22 9 -24 43 -16 40 9 -2 25 16
36 37 25 23 -13 42 7 30 31 -6 10 -7 20 -3 22 5 3 8 22 8 43 0 38 -17 55 -31
32z"/>
</g>
</svg>
