<svg data-logo="logo" xmlns="http://www.w3.org/2000/svg" viewBox="0 0 95 42">
            <g style="opacity: 1;" id="logogram" transform="translate(0, 1) rotate(0)"><path fill-rule="evenodd" clip-rule="evenodd" d="M0 15V31H5C5.52527 31 6.04541 31.1035 6.53076 31.3045C7.01599 31.5055 7.45703 31.8001 7.82837 32.1716C8.19983 32.543 8.49451 32.984 8.69556 33.4693C8.89648 33.9546 9 34.4747 9 35V40H21L36 25V9H31C30.4747 9 29.9546 8.89655 29.4692 8.69553C28.984 8.49451 28.543 8.19986 28.1716 7.82843C27.8002 7.457 27.5055 7.01602 27.3044 6.53073C27.1035 6.04544 27 5.5253 27 5V0H15L0 15ZM17 30H10V19L19 10H26V21L17 30Z" fill="#FFFF"></path></g>
            <g style="opacity: 1;" id="logotype" transform="translate(42, 8)"><path fill="#ffff" d="M15.07 4.86L7.28 4.86L7.28 0.54L28.08 0.54L28.08 4.86L20.30 4.86L20.30 26L15.07 26L15.07 4.86ZM40.67 26.34L40.67 26.34Q37.10 26.34 34.41 24.76Q31.72 23.18 30.21 20.25Q28.69 17.32 28.69 13.30L28.69 13.30Q28.69 9.17 30.27 6.24Q31.84 3.30 34.52 1.75Q37.20 0.19 40.55 0.19L40.55 0.19Q42.71 0.19 44.56 0.82Q46.42 1.44 47.86 2.59Q49.30 3.73 50.22 5.30Q51.13 6.86 51.41 8.74L51.41 8.74L46.11 8.74Q45.83 7.83 45.35 7.11Q44.86 6.38 44.17 5.87Q43.48 5.36 42.59 5.09Q41.70 4.83 40.64 4.83L40.64 4.83Q38.67 4.83 37.17 5.81Q35.67 6.79 34.83 8.67Q33.99 10.55 33.99 13.25L33.99 13.25Q33.99 15.95 34.82 17.84Q35.65 19.73 37.15 20.72Q38.66 21.71 40.71 21.71L40.71 21.71Q42.55 21.71 43.87 21.04Q45.18 20.38 45.89 19.15Q46.60 17.92 46.60 16.24L46.60 16.24L47.70 16.40L41.07 16.40L41.07 12.43L51.66 12.43L51.66 15.61Q51.66 18.96 50.24 21.36Q48.83 23.76 46.35 25.05Q43.87 26.34 40.67 26.34Z"></path></g>
            
          </svg>